<svg width="48" height="48" viewBox="0 0 48 48" fill="none" xmlns="http://www.w3.org/2000/svg">
    <path d="M4 35.2V4.79995C4.00127 4.37599 4.17024 3.96976 4.47003 3.66998C4.76981 3.37019 5.17604 3.20122 5.6 3.19995H42.4C42.824 3.20122 43.2302 3.37019 43.53 3.66998C43.8298 3.96976 43.9987 4.37599 44 4.79995V35.2H4Z"
          fill="#205B75"/>
    <path d="M47.2008 41.5999V43.9999C47.2008 44.212 47.1165 44.4155 46.9665 44.5655C46.8164 44.7156 46.613 44.7999 46.4008 44.7999H1.60078C1.38861 44.7999 1.18512 44.7156 1.0351 44.5655C0.885067 44.4155 0.800781 44.212 0.800781 43.9999V41.5999L4.00078 33.5999H44.0008L47.2008 41.5999Z"
          fill="#CADBEA"/>
    <path d="M47.2008 41.5999V43.9999C47.2008 44.212 47.1165 44.4155 46.9665 44.5655C46.8164 44.7156 46.613 44.7999 46.4008 44.7999H1.60078C1.38861 44.7999 1.18512 44.7156 1.0351 44.5655C0.885067 44.4155 0.800781 44.212 0.800781 43.9999V41.5999H47.2008Z"
          fill="#ABBBCC"/>
    <path d="M36.2152 6.3999H39.9992C40.2114 6.3999 40.4149 6.48419 40.5649 6.63422C40.7149 6.78425 40.7992 6.98773 40.7992 7.1999V29.5999C40.7992 29.8121 40.7149 30.0156 40.5649 30.1656C40.4149 30.3156 40.2114 30.3999 39.9992 30.3999H7.99922C7.78705 30.3999 7.58356 30.3156 7.43353 30.1656C7.2835 30.0156 7.19922 29.8121 7.19922 29.5999V7.1999C7.19922 6.98773 7.2835 6.78425 7.43353 6.63422C7.58356 6.48419 7.78705 6.3999 7.99922 6.3999H36.2152Z"
          fill="#114559"/>
    <path d="M15.1992 41.5999L16.5984 38.1031C16.6577 37.9546 16.7601 37.8273 16.8925 37.7376C17.0248 37.6479 17.181 37.6 17.3408 37.5999H30.6576C30.8175 37.6 30.9736 37.6479 31.106 37.7376C31.2383 37.8273 31.3407 37.9546 31.4 38.1031L32.7992 41.5999H15.1992Z"
          fill="#E1EAF4"/>
    <path d="M12.0014 14.3998C12.1596 14.3998 12.3142 14.3529 12.4458 14.265C12.5773 14.1771 12.6798 14.0521 12.7403 13.906C12.8009 13.7598 12.8167 13.599 12.7859 13.4438C12.755 13.2887 12.6788 13.1461 12.567 13.0342L11.5326 11.9998L12.567 10.9654C12.7127 10.8146 12.7934 10.6125 12.7915 10.4027C12.7897 10.193 12.7056 9.99232 12.5572 9.84399C12.4089 9.69567 12.2083 9.61153 11.9985 9.60971C11.7888 9.60789 11.5867 9.68852 11.4358 9.83425L9.83579 11.4342C9.68581 11.5843 9.60156 11.7877 9.60156 11.9998C9.60156 12.212 9.68581 12.4154 9.83579 12.5654L11.4358 14.1654C11.5858 14.3155 11.7892 14.3998 12.0014 14.3998ZM19.4358 14.1654C19.5858 14.3154 19.7893 14.3997 20.0014 14.3997C20.2135 14.3997 20.417 14.3154 20.567 14.1654L22.167 12.5654C22.317 12.4154 22.4012 12.212 22.4012 11.9998C22.4012 11.7877 22.317 11.5843 22.167 11.4342L20.567 9.83425C20.4161 9.68852 20.214 9.60789 20.0043 9.60971C19.7945 9.61153 19.5939 9.69567 19.4455 9.84399C19.2972 9.99232 19.2131 10.193 19.2113 10.4027C19.2094 10.6125 19.2901 10.8146 19.4358 10.9654L20.4702 11.9998L19.4358 13.0342C19.2858 13.1843 19.2016 13.3877 19.2016 13.5998C19.2016 13.812 19.2858 14.0154 19.4358 14.1654ZM14.8438 14.3198C14.9378 14.3669 15.0402 14.3949 15.145 14.4023C15.2499 14.4097 15.3552 14.3964 15.4549 14.3631C15.5546 14.3298 15.6467 14.2772 15.7261 14.2083C15.8055 14.1394 15.8705 14.0555 15.9174 13.9614L17.5174 10.7614C17.5644 10.6674 17.5923 10.5651 17.5997 10.4602C17.6071 10.3554 17.5938 10.2501 17.5605 10.1504C17.5273 10.0507 17.4747 9.95857 17.4058 9.8792C17.3369 9.79983 17.253 9.73481 17.159 9.68785C17.065 9.64089 16.9626 9.61291 16.8578 9.6055C16.7529 9.5981 16.6477 9.61142 16.548 9.6447C16.4483 9.67798 16.3561 9.73057 16.2767 9.79947C16.1974 9.86837 16.1324 9.95222 16.0854 10.0462L14.4854 13.2462C14.4384 13.3403 14.4104 13.4426 14.4029 13.5475C14.3955 13.6523 14.4088 13.7576 14.4421 13.8573C14.4754 13.957 14.528 14.0492 14.5969 14.1286C14.6658 14.2079 14.7497 14.2729 14.8438 14.3198Z"
          fill="white"/>
    <path d="M14.4023 16.8C14.4023 16.5878 14.3181 16.3843 14.168 16.2343C14.018 16.0843 13.8145 16 13.6023 16H11.2023C10.9902 16 10.7867 16.0843 10.6367 16.2343C10.4866 16.3843 10.4023 16.5878 10.4023 16.8C10.4023 17.0122 10.4866 17.2157 10.6367 17.3657C10.7867 17.5157 10.9902 17.6 11.2023 17.6H13.6023C13.8145 17.6 14.018 17.5157 14.168 17.3657C14.3181 17.2157 14.4023 17.0122 14.4023 16.8Z"
          fill="#E5BB33"/>
    <path d="M16 16.8C16 17.0122 16.0843 17.2157 16.2343 17.3657C16.3843 17.5157 16.5878 17.6 16.8 17.6H23.2C23.4122 17.6 23.6157 17.5157 23.7657 17.3657C23.9157 17.2157 24 17.0122 24 16.8C24 16.5878 23.9157 16.3843 23.7657 16.2343C23.6157 16.0843 23.4122 16 23.2 16H16.8C16.5878 16 16.3843 16.0843 16.2343 16.2343C16.0843 16.3843 16 16.5878 16 16.8Z"
          fill="#EB6374"/>
    <path d="M20 20C20 19.7878 19.9157 19.5843 19.7657 19.4343C19.6157 19.2842 19.4122 19.2 19.2 19.2H12.8C12.5878 19.2 12.3843 19.2842 12.2343 19.4343C12.0843 19.5843 12 19.7878 12 20C12 20.2121 12.0843 20.4156 12.2343 20.5656C12.3843 20.7157 12.5878 20.8 12.8 20.8H19.2C19.4122 20.8 19.6157 20.7157 19.7657 20.5656C19.9157 20.4156 20 20.2121 20 20ZM12.8 22.4C12.5878 22.4 12.3843 22.4842 12.2343 22.6343C12.0843 22.7843 12 22.9878 12 23.2C12 23.4121 12.0843 23.6156 12.2343 23.7656C12.3843 23.9157 12.5878 24 12.8 24H16.8C17.0122 24 17.2157 23.9157 17.3657 23.7656C17.5157 23.6156 17.6 23.4121 17.6 23.2C17.6 22.9878 17.5157 22.7843 17.3657 22.6343C17.2157 22.4842 17.0122 22.4 16.8 22.4H12.8Z"
          fill="#E5BB33"/>
    <path d="M32.8 23.9999H35.2C35.4122 23.9999 35.6157 23.9156 35.7657 23.7656C35.9157 23.6156 36 23.4121 36 23.1999C36 22.9877 35.9157 22.7842 35.7657 22.6342C35.6157 22.4842 35.4122 22.3999 35.2 22.3999H32.8C32.5878 22.3999 32.3843 22.4842 32.2343 22.6342C32.0843 22.7842 32 22.9877 32 23.1999C32 23.4121 32.0843 23.6156 32.2343 23.7656C32.3843 23.9156 32.5878 23.9999 32.8 23.9999Z"
          fill="#82ECFF"/>
    <path d="M19.1992 23.1999C19.1992 23.4121 19.2835 23.6156 19.4335 23.7656C19.5836 23.9156 19.787 23.9999 19.9992 23.9999H29.5992C29.8114 23.9999 30.0149 23.9156 30.1649 23.7656C30.3149 23.6156 30.3992 23.4121 30.3992 23.1999C30.3992 22.9877 30.3149 22.7842 30.1649 22.6342C30.0149 22.4842 29.8114 22.3999 29.5992 22.3999H19.9992C19.787 22.3999 19.5836 22.4842 19.4335 22.6342C19.2835 22.7842 19.1992 22.9877 19.1992 23.1999Z"
          fill="#EB6374"/>
    <path d="M14.4 25.5999H12.8C12.5878 25.5999 12.3843 25.6841 12.2343 25.8342C12.0843 25.9842 12 26.1877 12 26.3999C12 26.612 12.0843 26.8155 12.2343 26.9655C12.3843 27.1156 12.5878 27.1999 12.8 27.1999H14.4C14.6122 27.1999 14.8157 27.1156 14.9657 26.9655C15.1157 26.8155 15.2 26.612 15.2 26.3999C15.2 26.1877 15.1157 25.9842 14.9657 25.8342C14.8157 25.6841 14.6122 25.5999 14.4 25.5999Z"
          fill="#E5BB33"/>
    <path d="M35.2016 25.5999H26.4016C26.1894 25.5999 25.9859 25.6841 25.8359 25.8342C25.6858 25.9842 25.6016 26.1877 25.6016 26.3999C25.6016 26.612 25.6858 26.8155 25.8359 26.9655C25.9859 27.1156 26.1894 27.1999 26.4016 27.1999H35.2016C35.4137 27.1999 35.6172 27.1156 35.7672 26.9655C35.9173 26.8155 36.0016 26.612 36.0016 26.3999C36.0016 26.1877 35.9173 25.9842 35.7672 25.8342C35.6172 25.6841 35.4137 25.5999 35.2016 25.5999Z"
          fill="#82ECFF"/>
    <path d="M23.2008 25.5999H17.6008C17.3886 25.5999 17.1851 25.6841 17.0351 25.8342C16.8851 25.9842 16.8008 26.1877 16.8008 26.3999C16.8008 26.612 16.8851 26.8155 17.0351 26.9655C17.1851 27.1156 17.3886 27.1999 17.6008 27.1999H23.2008C23.413 27.1999 23.6164 27.1156 23.7665 26.9655C23.9165 26.8155 24.0008 26.612 24.0008 26.3999C24.0008 26.1877 23.9165 25.9842 23.7665 25.8342C23.6164 25.6841 23.413 25.5999 23.2008 25.5999Z"
          fill="#EB6374"/>
</svg>
