<svg width="64" height="64" viewBox="0 0 64 64" fill="none" xmlns="http://www.w3.org/2000/svg">
    <path d="M5.33203 46.9333V6.39994C5.33372 5.83466 5.55902 5.29302 5.95874 4.89331C6.35845 4.49359 6.90009 4.26829 7.46536 4.2666H56.532C57.0973 4.26829 57.6389 4.49359 58.0387 4.89331C58.4384 5.29302 58.6637 5.83466 58.6654 6.39994V46.9333H5.33203Z"
          fill="#205B75"/>
    <path d="M62.9331 55.4667V58.6667C62.9331 58.9496 62.8207 59.2209 62.6207 59.421C62.4206 59.621 62.1493 59.7334 61.8664 59.7334H2.13307C1.85018 59.7334 1.57886 59.621 1.37883 59.421C1.17879 59.2209 1.06641 58.9496 1.06641 58.6667V55.4667L5.33307 44.8H58.6664L62.9331 55.4667Z"
          fill="#CADBEA"/>
    <path d="M62.9331 55.4666V58.6666C62.9331 58.9495 62.8207 59.2208 62.6207 59.4208C62.4206 59.6208 62.1493 59.7332 61.8664 59.7332H2.13307C1.85018 59.7332 1.57886 59.6208 1.37883 59.4208C1.17879 59.2208 1.06641 58.9495 1.06641 58.6666V55.4666H62.9331Z"
          fill="#ABBBCC"/>
    <path d="M48.2896 8.5332H53.3349C53.6178 8.5332 53.8891 8.64558 54.0891 8.84562C54.2892 9.04566 54.4016 9.31697 54.4016 9.59987V39.4665C54.4016 39.7494 54.2892 40.0207 54.0891 40.2208C53.8891 40.4208 53.6178 40.5332 53.3349 40.5332H10.6682C10.3853 40.5332 10.114 40.4208 9.91398 40.2208C9.71394 40.0207 9.60156 39.7494 9.60156 39.4665V9.59987C9.60156 9.31697 9.71394 9.04566 9.91398 8.84562C10.114 8.64558 10.3853 8.5332 10.6682 8.5332H48.2896Z"
          fill="#114559"/>
    <path d="M20.2656 55.4666L22.1312 50.8042C22.2103 50.6063 22.3469 50.4366 22.5233 50.317C22.6997 50.1974 22.9079 50.1334 23.1211 50.1333H40.8768C41.09 50.1334 41.2982 50.1974 41.4746 50.317C41.6511 50.4366 41.7876 50.6063 41.8667 50.8042L43.7323 55.4666H20.2656Z"
          fill="#E1EAF4"/>
    <path d="M16.0006 19.2C16.2115 19.2 16.4177 19.1374 16.593 19.0202C16.7684 18.903 16.9051 18.7364 16.9858 18.5415C17.0665 18.3467 17.0876 18.1322 17.0465 17.9253C17.0054 17.7185 16.9038 17.5284 16.7547 17.3792L15.3755 16L16.7547 14.6208C16.949 14.4197 17.0565 14.1502 17.0541 13.8705C17.0516 13.5909 16.9395 13.3233 16.7417 13.1256C16.5439 12.9278 16.2764 12.8156 15.9967 12.8132C15.717 12.8108 15.4476 12.9183 15.2464 13.1126L13.1131 15.2459C12.9131 15.4459 12.8008 15.7172 12.8008 16C12.8008 16.2829 12.9131 16.5541 13.1131 16.7542L15.2464 18.8875C15.4464 19.0876 15.7177 19.2 16.0006 19.2ZM25.9131 18.8875C26.1131 19.0875 26.3844 19.1998 26.6672 19.1998C26.9501 19.1998 27.2213 19.0875 27.4214 18.8875L29.5547 16.7542C29.7547 16.5541 29.867 16.2829 29.867 16C29.867 15.7172 29.7547 15.4459 29.5547 15.2459L27.4214 13.1126C27.2202 12.9183 26.9507 12.8108 26.6711 12.8132C26.3914 12.8156 26.1238 12.9278 25.9261 13.1256C25.7283 13.3233 25.6161 13.5909 25.6137 13.8705C25.6113 14.1502 25.7188 14.4197 25.9131 14.6208L27.2923 16L25.9131 17.3792C25.7131 17.5793 25.6008 17.8505 25.6008 18.1334C25.6008 18.4162 25.7131 18.6875 25.9131 18.8875ZM19.7904 19.0934C19.9158 19.156 20.0523 19.1934 20.1921 19.2033C20.3319 19.2132 20.4722 19.1955 20.6052 19.1511C20.7381 19.1067 20.861 19.0366 20.9668 18.9447C21.0726 18.8528 21.1593 18.7409 21.2219 18.6155L23.3552 14.3488C23.4178 14.2235 23.4551 14.087 23.465 13.9472C23.4749 13.8074 23.4571 13.6671 23.4128 13.5341C23.3684 13.4012 23.2983 13.2783 23.2064 13.1725C23.1145 13.0667 23.0027 12.98 22.8774 12.9174C22.752 12.8548 22.6155 12.8175 22.4757 12.8076C22.3359 12.7977 22.1956 12.8155 22.0627 12.8598C21.9297 12.9042 21.8068 12.9743 21.701 13.0662C21.5952 13.1581 21.5085 13.2699 21.4459 13.3952L19.3126 17.6619C19.2499 17.7873 19.2125 17.9237 19.2026 18.0635C19.1927 18.2033 19.2105 18.3437 19.2548 18.4767C19.2992 18.6096 19.3694 18.7325 19.4613 18.8383C19.5532 18.9441 19.665 19.0308 19.7904 19.0934Z"
          fill="white"/>
    <path d="M19.2005 22.3999C19.2005 22.117 19.0881 21.8457 18.8881 21.6457C18.6881 21.4456 18.4168 21.3333 18.1339 21.3333H14.9339C14.651 21.3333 14.3796 21.4456 14.1796 21.6457C13.9796 21.8457 13.8672 22.117 13.8672 22.3999C13.8672 22.6828 13.9796 22.9541 14.1796 23.1542C14.3796 23.3542 14.651 23.4666 14.9339 23.4666H18.1339C18.4168 23.4666 18.6881 23.3542 18.8881 23.1542C19.0881 22.9541 19.2005 22.6828 19.2005 22.3999Z"
          fill="#E5BB33"/>
    <path d="M21.332 22.3999C21.332 22.6828 21.4444 22.9541 21.6444 23.1542C21.8445 23.3542 22.1158 23.4666 22.3987 23.4666H30.932C31.2149 23.4666 31.4862 23.3542 31.6863 23.1542C31.8863 22.9541 31.9987 22.6828 31.9987 22.3999C31.9987 22.117 31.8863 21.8457 31.6863 21.6457C31.4862 21.4456 31.2149 21.3333 30.932 21.3333H22.3987C22.1158 21.3333 21.8445 21.4456 21.6444 21.6457C21.4444 21.8457 21.332 22.117 21.332 22.3999Z"
          fill="#EB6374"/>
    <path d="M26.6667 26.6665C26.6667 26.3836 26.5543 26.1123 26.3542 25.9123C26.1542 25.7122 25.8829 25.5999 25.6 25.5999H17.0667C16.7838 25.5999 16.5125 25.7122 16.3124 25.9123C16.1124 26.1123 16 26.3836 16 26.6665C16 26.9494 16.1124 27.2207 16.3124 27.4208C16.5125 27.6208 16.7838 27.7332 17.0667 27.7332H25.6C25.8829 27.7332 26.1542 27.6208 26.3542 27.4208C26.5543 27.2207 26.6667 26.9494 26.6667 26.6665ZM17.0667 29.8665C16.7838 29.8665 16.5125 29.9789 16.3124 30.1789C16.1124 30.379 16 30.6503 16 30.9332C16 31.2161 16.1124 31.4874 16.3124 31.6874C16.5125 31.8875 16.7838 31.9999 17.0667 31.9999H22.4C22.6829 31.9999 22.9542 31.8875 23.1542 31.6874C23.3543 31.4874 23.4667 31.2161 23.4667 30.9332C23.4667 30.6503 23.3543 30.379 23.1542 30.1789C22.9542 29.9789 22.6829 29.8665 22.4 29.8665H17.0667Z"
          fill="#E5BB33"/>
    <path d="M43.7346 32H46.9346C47.2175 32 47.4888 31.8877 47.6889 31.6876C47.8889 31.4876 48.0013 31.2163 48.0013 30.9334C48.0013 30.6505 47.8889 30.3792 47.6889 30.1791C47.4888 29.9791 47.2175 29.8667 46.9346 29.8667H43.7346C43.4517 29.8667 43.1804 29.9791 42.9804 30.1791C42.7803 30.3792 42.668 30.6505 42.668 30.9334C42.668 31.2163 42.7803 31.4876 42.9804 31.6876C43.1804 31.8877 43.4517 32 43.7346 32Z"
          fill="#82ECFF"/>
    <path d="M25.6016 30.9334C25.6016 31.2163 25.7139 31.4876 25.914 31.6876C26.114 31.8877 26.3853 32 26.6682 32H39.4682C39.7511 32 40.0224 31.8877 40.2225 31.6876C40.4225 31.4876 40.5349 31.2163 40.5349 30.9334C40.5349 30.6505 40.4225 30.3792 40.2225 30.1791C40.0224 29.9791 39.7511 29.8667 39.4682 29.8667H26.6682C26.3853 29.8667 26.114 29.9791 25.914 30.1791C25.7139 30.3792 25.6016 30.6505 25.6016 30.9334Z"
          fill="#EB6374"/>
    <path d="M19.2 34.1333H17.0667C16.7838 34.1333 16.5125 34.2457 16.3124 34.4457C16.1124 34.6458 16 34.9171 16 35.2C16 35.4829 16.1124 35.7542 16.3124 35.9542C16.5125 36.1543 16.7838 36.2666 17.0667 36.2666H19.2C19.4829 36.2666 19.7542 36.1543 19.9542 35.9542C20.1543 35.7542 20.2667 35.4829 20.2667 35.2C20.2667 34.9171 20.1543 34.6458 19.9542 34.4457C19.7542 34.2457 19.4829 34.1333 19.2 34.1333Z"
          fill="#E5BB33"/>
    <path d="M46.9328 34.1333H35.1995C34.9166 34.1333 34.6453 34.2457 34.4452 34.4457C34.2452 34.6458 34.1328 34.9171 34.1328 35.2C34.1328 35.4829 34.2452 35.7542 34.4452 35.9542C34.6453 36.1543 34.9166 36.2666 35.1995 36.2666H46.9328C47.2157 36.2666 47.487 36.1543 47.6871 35.9542C47.8871 35.7542 47.9995 35.4829 47.9995 35.2C47.9995 34.9171 47.8871 34.6458 47.6871 34.4457C47.487 34.2457 47.2157 34.1333 46.9328 34.1333Z"
          fill="#82ECFF"/>
    <path d="M30.9318 34.1333H23.4651C23.1822 34.1333 22.9109 34.2457 22.7109 34.4457C22.5108 34.6458 22.3984 34.9171 22.3984 35.2C22.3984 35.4829 22.5108 35.7542 22.7109 35.9542C22.9109 36.1543 23.1822 36.2666 23.4651 36.2666H30.9318C31.2147 36.2666 31.486 36.1543 31.686 35.9542C31.8861 35.7542 31.9984 35.4829 31.9984 35.2C31.9984 34.9171 31.8861 34.6458 31.686 34.4457C31.486 34.2457 31.2147 34.1333 30.9318 34.1333Z"
          fill="#EB6374"/>
</svg>
